# xmcd
#
# Track frame offsets:
#	150
#	16835
#	31791
#	46343
#	65057
#	86653
#	102684
#	126378
#	147989
#	163323
#	177128
#	193628
#
# Disc length: 2833 seconds
#
# Revision: 0
# Processed by: cddbd v1.5.2PL0 Copyright (c) Steve Scherf et al.
# Submitted via: dBpowerAMP V4.0
#
DISCID=aa0b0f0c
DTITLE=John Denver - The Essential John Denver
DYEAR=2007
DGENRE=Country
TTITLE0=Leaving on a Jet Plane
TTITLE1=Rhymes and Reasons
TTITLE2=Take Me Home Country Roads
TTITLE3=Poems, Prayers, and Promises
TTITLE4=Rocky Mountain High
TTITLE5=I'm Sorry
TTITLE6=Sunshine on My Shoulder
TTITLE7=Back Home Again
TTITLE8=Thank God I'm a Country Boy
TTITLE9=Annie's Song
TTITLE10=Calypso
TTITLE11=Flay Away
EXTD=
EXTT0=
EXTT1=
EXTT2=
EXTT3=
EXTT4=
EXTT5=
EXTT6=
EXTT7=
EXTT8=
EXTT9=
EXTT10=
EXTT11=
PLAYORDER=
